<svg width="1366" height="1366" viewBox="0 0 1366 1366" fill="none" xmlns="http://www.w3.org/2000/svg">
<path d="M740.667 338.533C733.467 341.733 727.6 347.867 700.8 380C668.133 419.067 652.133 437.067 649.2 438C647.6 438.533 643.2 437.333 637.733 434.8C628.8 430.533 621.867 429.467 616 431.333C610.133 433.2 593.867 444.8 556.667 474.133C544.667 483.467 541.333 483.467 534.667 474.133C524.933 460.533 513.867 448.667 508 445.6C500.8 441.867 493.067 442.4 485.467 446.933C482.8 448.533 468.667 461.6 454 476C439.333 490.4 425.333 503.733 422.933 505.733C417.867 509.867 413.2 510.267 406.267 507.333C391.467 501.2 385.467 505.067 332.8 554.267C319.067 567.2 297.867 584.4 271.333 604.267C247.733 621.867 234.933 630.533 220.4 638.4C214.133 641.867 208.267 645.6 207.6 646.8C205.6 650 207.467 655.333 211.333 657.067C214 658.267 328.4 658.667 684.533 658.667H1154.27L1157.87 655.867C1161.2 653.2 1162.27 648.933 1160.27 645.733C1159.73 644.933 1152.8 640.533 1144.67 636C1098.8 609.867 1029.2 554.133 959.867 488C947.067 475.6 933.6 463.733 930 461.467C922.533 456.667 915.467 456.133 904.8 459.333C894.267 462.533 889.867 460.4 873.333 444.8C841.067 414.133 827.333 400.133 820 390.667C809.333 376.8 773.067 341.733 766.267 338.533C759.067 335.333 747.733 335.333 740.667 338.533ZM761.333 359.467C765.067 362.933 771.333 369.733 775.467 374.8L782.933 383.867L768.933 403.6C749.067 431.733 735.2 452.8 724 472C713.733 489.467 699.733 517.467 700.667 518.4C701.733 519.467 709.867 509.067 759.333 442.667L784.667 408.8L786.4 416C790.667 433.867 788.267 447.067 777.733 464.4C774 470.667 773.333 472.8 774.133 476.4C776.933 489.067 774.267 497.067 762.4 511.733C751.733 524.933 748.667 529.867 742 544.533L737.333 554.933L743.6 551.333C747.2 549.333 757.2 542.533 766 536.267C774.8 530 782.667 524.933 783.467 524.8C784.267 524.667 788.8 528.267 793.467 532.667L802.133 540.667L792.667 540.267C784 539.867 782.533 540.267 772.4 545.2C766.4 548.133 758.133 552.667 754 555.2C746 560.4 727.867 569.733 723.067 571.2C718.933 572.533 719.067 571.2 725.2 555.467C733.333 534.133 733.333 534.667 725.867 540.933C708 555.733 685.067 570.133 659.2 582.8C644.533 590.133 631.2 596 629.6 596C627.067 596 628.8 592.133 643.867 562.267C659.2 532 668.667 510.933 667.467 509.733C667.333 509.467 663.867 512.8 660 516.933C634.267 544.8 608 570.133 597.467 577.2C583.067 586.933 572.4 592.4 571.333 590.667C570 588.533 586.533 562.133 615.2 520.667C657.6 459.2 677.067 434.133 723.467 380.667C741.733 359.467 748.267 353.333 752.133 353.333C753.6 353.333 757.733 356.133 761.333 359.467ZM501.867 464.133C506.267 467.6 506.267 469.867 501.733 476.533C484.533 501.867 466.8 526.4 459.333 535.333C454.4 541.2 446 551.733 440.667 558.667C426.667 577.2 418.133 585.2 406.667 591.067C401.2 593.867 391.867 599.6 386 604C380.133 608.267 374.933 611.467 374.533 610.933C373.2 609.467 370.667 601.2 370.667 598.533C370.667 596.133 394.533 566.8 420.533 537.333C440.267 515.067 493.6 461.333 496.133 461.333C497.333 461.333 499.867 462.533 501.867 464.133ZM584.4 484.933C581.067 492.133 575.2 502.8 571.2 508.8C564 519.733 544.4 540.8 536.133 546.533L531.733 549.733L532.667 546.533C536 534.533 553.6 506.667 566.133 493.333C573.333 485.733 588.8 472 590.267 472C590.4 472 587.733 477.867 584.4 484.933ZM398.667 526C398.667 533.067 357.867 597.2 347.867 605.867C341.333 611.467 335.6 613.333 325.333 613.333C321.333 613.333 312.8 614 306.267 614.8C299.867 615.6 294 616 293.2 615.733C292.4 615.467 296.133 611.467 301.6 606.8C306.933 602.133 329.2 582 351.2 562.133C373.067 542.267 392 525.6 393.2 525.067C396.8 523.6 398.667 523.867 398.667 526ZM480 546.667C480 555.733 468 576.133 457.867 584.133C450.267 590.133 449.2 588.933 453.333 579.333C462.267 558.533 480 536.8 480 546.667Z" fill="#D44C4C"/>
</svg>
